<svg xmlns="http://www.w3.org/2000/svg" xmlns:xlink="http://www.w3.org/1999/xlink" contentStyleType="text/css" data-diagram-type="CLASS" height="972px" preserveAspectRatio="none" style="width:1365px;height:972px;background:#FFFFFF;" version="1.1" viewBox="0 0 1365 972" width="1365px" zoomAndPan="magnify"><title>Diagrama de Clases Completo - API AccesLab (Incluye Reportes)</title><defs/><g><g class="title" data-source-line="10"><text fill="#000000" font-family="Verdana" font-size="22" font-weight="bold" lengthAdjust="spacing" textLength="797.2422" x="279.3789" y="35.4209">Diagrama de Clases Completo - API AccesLab (Incluye Reportes)</text></g><!--cluster App: Maestros--><g class="cluster" data-entity="App. Maestros" data-source-line="15" data-uid="ent0002" id="cluster_App. Maestros"><path d="M261.5,684.4694 L376.6055,684.4694 A3.75,3.75 0 0 1 379.1055,686.9694 L386.1055,706.7663 L1355.5,706.7663 A2.5,2.5 0 0 1 1358,709.2663 L1358,962.7494 A2.5,2.5 0 0 1 1355.5,965.2494 L261.5,965.2494 A2.5,2.5 0 0 1 259,962.7494 L259,686.9694 A2.5,2.5 0 0 1 261.5,684.4694" fill="#FFFFFF" style="stroke:#000000;stroke-width:1;"/><line style="stroke:#000000;stroke-width:1;" x1="259" x2="386.1055" y1="706.7663" y2="706.7663"/><text fill="#000000" font-family="Verdana" font-size="14" font-weight="bold" lengthAdjust="spacing" textLength="114.1055" x="263" y="699.4645">App: Maestros</text></g><!--cluster App: Usuarios--><g class="cluster" data-entity="App. Usuarios" data-source-line="67" data-uid="ent0013" id="cluster_App. Usuarios"><path d="M13.5,271.6894 L124.6201,271.6894 A3.75,3.75 0 0 1 127.1201,274.1894 L134.1201,293.9863 L379.5,293.9863 A2.5,2.5 0 0 1 382,296.4863 L382,657.9694 A2.5,2.5 0 0 1 379.5,660.4694 L13.5,660.4694 A2.5,2.5 0 0 1 11,657.9694 L11,274.1894 A2.5,2.5 0 0 1 13.5,271.6894" fill="#FFFFFF" style="stroke:#000000;stroke-width:1;"/><line style="stroke:#000000;stroke-width:1;" x1="11" x2="134.1201" y1="293.9863" y2="293.9863"/><text fill="#000000" font-family="Verdana" font-size="14" font-weight="bold" lengthAdjust="spacing" textLength="110.1201" x="15" y="286.6845">App: Usuarios</text></g><!--cluster App: Reservas--><g class="cluster" data-entity="App. Reservas" data-source-line="91" data-uid="ent0021" id="cluster_App. Reservas"><path d="M814.5,90.1994 L928.7646,90.1994 A3.75,3.75 0 0 1 931.2646,92.6994 L938.2646,112.4963 L1047.5,112.4963 A2.5,2.5 0 0 1 1050,114.9963 L1050,541.6694 A2.5,2.5 0 0 1 1047.5,544.1694 L814.5,544.1694 A2.5,2.5 0 0 1 812,541.6694 L812,92.6994 A2.5,2.5 0 0 1 814.5,90.1994" fill="#FFFFFF" style="stroke:#000000;stroke-width:1;"/><line style="stroke:#000000;stroke-width:1;" x1="812" x2="938.2646" y1="112.4963" y2="112.4963"/><text fill="#000000" font-family="Verdana" font-size="14" font-weight="bold" lengthAdjust="spacing" textLength="113.2646" x="816" y="105.1945">App: Reservas</text></g><!--cluster App: Reportes--><g class="cluster" data-entity="App. Reportes" data-source-line="117" data-uid="ent0028" id="cluster_App. Reportes"><path d="M488.5,57.6094 L602.1904,57.6094 A3.75,3.75 0 0 1 604.6904,60.1094 L611.6904,79.9063 L777.5,79.9063 A2.5,2.5 0 0 1 780,82.4063 L780,378.6194 A2.5,2.5 0 0 1 777.5,381.1194 L488.5,381.1194 A2.5,2.5 0 0 1 486,378.6194 L486,60.1094 A2.5,2.5 0 0 1 488.5,57.6094" fill="#FFFFFF" style="stroke:#000000;stroke-width:1;"/><line style="stroke:#000000;stroke-width:1;" x1="486" x2="611.6904" y1="79.9063" y2="79.9063"/><text fill="#000000" font-family="Verdana" font-size="14" font-weight="bold" lengthAdjust="spacing" textLength="112.6904" x="490" y="72.6045">App: Reportes</text></g><!--class Lab--><g class="entity" data-entity="Lab" data-source-line="17" data-uid="ent0003" id="entity_Lab"><rect fill="#FFFFFF" height="84.8906" rx="2.5" ry="2.5" style="stroke:#2C3E50;stroke-width:1;" width="167.3633" x="1174.32" y="727.6194"/><ellipse cx="1210.557" cy="741.6194" fill="#FFCC00" rx="9" ry="9" style="stroke:#000000;stroke-width:1;"/><path d="M1206.2757,735.2288 L1209.1976,735.2288 L1210.6663,740.6663 L1212.1351,735.2288 L1215.0726,735.2288 L1215.0726,747.6194 L1212.9632,747.6194 L1212.9632,737.6975 L1211.6507,743.1194 L1209.7132,743.1194 L1208.3851,737.6975 L1208.3851,747.6194 L1206.2757,747.6194 L1206.2757,735.2288 Z " fill="#000000"/><text fill="#000000" font-family="Verdana" font-size="14" lengthAdjust="spacing" textLength="87.7256" x="1227.7207" y="746.4661">Laboratorios</text><line style="stroke:#2C3E50;stroke-width:1;" x1="1175.32" x2="1340.6833" y1="755.6194" y2="755.6194"/><g data-visibility-modifier="PUBLIC_FIELD"><ellipse cx="1185.32" cy="769.2678" fill="none" rx="3" ry="3" style="stroke:#000000;stroke-width:1;"/></g><text fill="#000000" font-family="Verdana" font-size="14" lengthAdjust="spacing" textLength="131.6875" x="1192.32" y="772.6145">Laboratorio_Id : PK</text><g data-visibility-modifier="PUBLIC_FIELD"><ellipse cx="1185.32" cy="785.5647" fill="none" rx="3" ry="3" style="stroke:#000000;stroke-width:1;"/></g><text fill="#000000" font-family="Verdana" font-size="14" lengthAdjust="spacing" textLength="143.3633" x="1192.32" y="788.9114">Nombre_Laboratorio</text><g data-visibility-modifier="PUBLIC_FIELD"><ellipse cx="1185.32" cy="801.8616" fill="none" rx="3" ry="3" style="stroke:#000000;stroke-width:1;"/></g><text fill="#000000" font-family="Verdana" font-size="14" lengthAdjust="spacing" textLength="73.7598" x="1192.32" y="805.2082">Capacidad</text></g><!--class Obj--><g class="entity" data-entity="Obj" data-source-line="23" data-uid="ent0004" id="entity_Obj"><rect fill="#FFFFFF" height="101.1875" rx="2.5" ry="2.5" style="stroke:#2C3E50;stroke-width:1;" width="140.6895" x="625.66" y="719.4694"/><ellipse cx="665.3758" cy="733.4694" fill="#FFCC00" rx="9" ry="9" style="stroke:#000000;stroke-width:1;"/><path d="M661.0946,727.0788 L664.0164,727.0788 L665.4852,732.5163 L666.9539,727.0788 L669.8914,727.0788 L669.8914,739.4694 L667.7821,739.4694 L667.7821,729.5475 L666.4696,734.9694 L664.5321,734.9694 L663.2039,729.5475 L663.2039,739.4694 L661.0946,739.4694 L661.0946,727.0788 Z " fill="#000000"/><text fill="#000000" font-family="Verdana" font-size="14" lengthAdjust="spacing" textLength="53.7578" x="682.8758" y="738.3161">Objetos</text><line style="stroke:#2C3E50;stroke-width:1;" x1="626.66" x2="765.3495" y1="747.4694" y2="747.4694"/><g data-visibility-modifier="PUBLIC_FIELD"><ellipse cx="636.66" cy="761.1178" fill="none" rx="3" ry="3" style="stroke:#000000;stroke-width:1;"/></g><text fill="#000000" font-family="Verdana" font-size="14" lengthAdjust="spacing" textLength="105.0137" x="643.66" y="764.4645">Objetos_Id : PK</text><g data-visibility-modifier="PUBLIC_FIELD"><ellipse cx="636.66" cy="777.4147" fill="none" rx="3" ry="3" style="stroke:#000000;stroke-width:1;"/></g><text fill="#000000" font-family="Verdana" font-size="14" lengthAdjust="spacing" textLength="116.6895" x="643.66" y="780.7614">Nombre_Objetos</text><g data-visibility-modifier="PUBLIC_FIELD"><ellipse cx="636.66" cy="793.7116" fill="none" rx="3" ry="3" style="stroke:#000000;stroke-width:1;"/></g><text fill="#000000" font-family="Verdana" font-size="14" lengthAdjust="spacing" textLength="78.4629" x="643.66" y="797.0582">Cant_Stock</text><g data-visibility-modifier="PUBLIC_FIELD"><ellipse cx="636.66" cy="810.0084" fill="none" rx="3" ry="3" style="stroke:#000000;stroke-width:1;"/></g><text fill="#000000" font-family="Verdana" font-size="14" lengthAdjust="spacing" textLength="43.5039" x="643.66" y="813.3551">Activo</text></g><!--class Cat--><g class="entity" data-entity="Cat" data-source-line="30" data-uid="ent0005" id="entity_Cat"><rect fill="#FFFFFF" height="68.5938" rx="2.5" ry="2.5" style="stroke:#2C3E50;stroke-width:1;" width="155.0654" x="619.47" y="880.6594"/><ellipse cx="655.707" cy="894.6594" fill="#FFCC00" rx="9" ry="9" style="stroke:#000000;stroke-width:1;"/><path d="M651.4257,888.2688 L654.3476,888.2688 L655.8163,893.7063 L657.2851,888.2688 L660.2226,888.2688 L660.2226,900.6594 L658.1132,900.6594 L658.1132,890.7375 L656.8007,896.1594 L654.8632,896.1594 L653.5351,890.7375 L653.5351,900.6594 L651.4257,900.6594 L651.4257,888.2688 Z " fill="#000000"/><text fill="#000000" font-family="Verdana" font-size="14" lengthAdjust="spacing" textLength="75.4277" x="672.8707" y="899.5061">Categorias</text><line style="stroke:#2C3E50;stroke-width:1;" x1="620.47" x2="773.5354" y1="908.6594" y2="908.6594"/><g data-visibility-modifier="PUBLIC_FIELD"><ellipse cx="630.47" cy="922.3078" fill="none" rx="3" ry="3" style="stroke:#000000;stroke-width:1;"/></g><text fill="#000000" font-family="Verdana" font-size="14" lengthAdjust="spacing" textLength="119.3896" x="637.47" y="925.6545">Categoria_Id : PK</text><g data-visibility-modifier="PUBLIC_FIELD"><ellipse cx="630.47" cy="938.6047" fill="none" rx="3" ry="3" style="stroke:#000000;stroke-width:1;"/></g><text fill="#000000" font-family="Verdana" font-size="14" lengthAdjust="spacing" textLength="131.0654" x="637.47" y="941.9514">Nombre_Categoria</text></g><!--class Role--><g class="entity" data-entity="Role" data-source-line="35" data-uid="ent0006" id="entity_Role"><rect fill="#FFFFFF" height="68.5938" rx="2.5" ry="2.5" style="stroke:#2C3E50;stroke-width:1;" width="125.0215" x="275.49" y="735.7694"/><ellipse cx="315.2058" cy="749.7694" fill="#FFCC00" rx="9" ry="9" style="stroke:#000000;stroke-width:1;"/><path d="M310.9246,743.3788 L313.8464,743.3788 L315.3152,748.8163 L316.7839,743.3788 L319.7214,743.3788 L319.7214,755.7694 L317.6121,755.7694 L317.6121,745.8475 L316.2996,751.2694 L314.3621,751.2694 L313.0339,745.8475 L313.0339,755.7694 L310.9246,755.7694 L310.9246,743.3788 Z " fill="#000000"/><text fill="#000000" font-family="Verdana" font-size="14" lengthAdjust="spacing" textLength="38.0898" x="332.7058" y="754.6161">Roles</text><line style="stroke:#2C3E50;stroke-width:1;" x1="276.49" x2="399.5115" y1="763.7694" y2="763.7694"/><g data-visibility-modifier="PUBLIC_FIELD"><ellipse cx="286.49" cy="777.4178" fill="none" rx="3" ry="3" style="stroke:#000000;stroke-width:1;"/></g><text fill="#000000" font-family="Verdana" font-size="14" lengthAdjust="spacing" textLength="73.4385" x="293.49" y="780.7645">Rol_Id : PK</text><g data-visibility-modifier="PUBLIC_FIELD"><ellipse cx="286.49" cy="793.7147" fill="none" rx="3" ry="3" style="stroke:#000000;stroke-width:1;"/></g><text fill="#000000" font-family="Verdana" font-size="14" lengthAdjust="spacing" textLength="101.0215" x="293.49" y="797.0614">Nombre_Roles</text></g><!--class Prog--><g class="entity" data-entity="Prog" data-source-line="40" data-uid="ent0007" id="entity_Prog"><rect fill="#FFFFFF" height="68.5938" rx="2.5" ry="2.5" style="stroke:#2C3E50;stroke-width:1;" width="155.1338" x="435.43" y="735.7694"/><ellipse cx="471.667" cy="749.7694" fill="#FFCC00" rx="9" ry="9" style="stroke:#000000;stroke-width:1;"/><path d="M467.3857,743.3788 L470.3076,743.3788 L471.7763,748.8163 L473.2451,743.3788 L476.1826,743.3788 L476.1826,755.7694 L474.0732,755.7694 L474.0732,745.8475 L472.7607,751.2694 L470.8232,751.2694 L469.4951,745.8475 L469.4951,755.7694 L467.3857,755.7694 L467.3857,743.3788 Z " fill="#000000"/><text fill="#000000" font-family="Verdana" font-size="14" lengthAdjust="spacing" textLength="75.4961" x="488.8307" y="754.6161">Programas</text><line style="stroke:#2C3E50;stroke-width:1;" x1="436.43" x2="589.5638" y1="763.7694" y2="763.7694"/><g data-visibility-modifier="PUBLIC_FIELD"><ellipse cx="446.43" cy="777.4178" fill="none" rx="3" ry="3" style="stroke:#000000;stroke-width:1;"/></g><text fill="#000000" font-family="Verdana" font-size="14" lengthAdjust="spacing" textLength="119.458" x="453.43" y="780.7645">Programa_Id : PK</text><g data-visibility-modifier="PUBLIC_FIELD"><ellipse cx="446.43" cy="793.7147" fill="none" rx="3" ry="3" style="stroke:#000000;stroke-width:1;"/></g><text fill="#000000" font-family="Verdana" font-size="14" lengthAdjust="spacing" textLength="131.1338" x="453.43" y="797.0614">Nombre_Programa</text></g><!--class Fac--><g class="entity" data-entity="Fac" data-source-line="45" data-uid="ent0008" id="entity_Fac"><rect fill="#FFFFFF" height="68.5938" rx="2.5" ry="2.5" style="stroke:#2C3E50;stroke-width:1;" width="146.9785" x="437.51" y="880.6594"/><ellipse cx="469.871" cy="894.6594" fill="#FFCC00" rx="9" ry="9" style="stroke:#000000;stroke-width:1;"/><path d="M465.5897,888.2688 L468.5116,888.2688 L469.9804,893.7063 L471.4491,888.2688 L474.3866,888.2688 L474.3866,900.6594 L472.2772,900.6594 L472.2772,890.7375 L470.9647,896.1594 L469.0272,896.1594 L467.6991,890.7375 L467.6991,900.6594 L465.5897,900.6594 L465.5897,888.2688 Z " fill="#000000"/><text fill="#000000" font-family="Verdana" font-size="14" lengthAdjust="spacing" textLength="75.9541" x="486.1734" y="899.5061">Facultades</text><line style="stroke:#2C3E50;stroke-width:1;" x1="438.51" x2="583.4885" y1="908.6594" y2="908.6594"/><g data-visibility-modifier="PUBLIC_FIELD"><ellipse cx="448.51" cy="922.3078" fill="none" rx="3" ry="3" style="stroke:#000000;stroke-width:1;"/></g><text fill="#000000" font-family="Verdana" font-size="14" lengthAdjust="spacing" textLength="111.3027" x="455.51" y="925.6545">Facultad_Id : PK</text><g data-visibility-modifier="PUBLIC_FIELD"><ellipse cx="448.51" cy="938.6047" fill="none" rx="3" ry="3" style="stroke:#000000;stroke-width:1;"/></g><text fill="#000000" font-family="Verdana" font-size="14" lengthAdjust="spacing" textLength="122.9785" x="455.51" y="941.9514">Nombre_Facultad</text></g><!--class Est--><g class="entity" data-entity="Est" data-source-line="50" data-uid="ent0009" id="entity_Est"><rect fill="#FFFFFF" height="68.5938" rx="2.5" ry="2.5" style="stroke:#2C3E50;stroke-width:1;" width="134.5918" x="801.7" y="735.7694"/><ellipse cx="837.937" cy="749.7694" fill="#FFCC00" rx="9" ry="9" style="stroke:#000000;stroke-width:1;"/><path d="M833.6557,743.3788 L836.5776,743.3788 L838.0463,748.8163 L839.5151,743.3788 L842.4526,743.3788 L842.4526,755.7694 L840.3432,755.7694 L840.3432,745.8475 L839.0307,751.2694 L837.0932,751.2694 L835.7651,745.8475 L835.7651,755.7694 L833.6557,755.7694 L833.6557,743.3788 Z " fill="#000000"/><text fill="#000000" font-family="Verdana" font-size="14" lengthAdjust="spacing" textLength="54.9541" x="855.1007" y="754.6161">Estados</text><line style="stroke:#2C3E50;stroke-width:1;" x1="802.7" x2="935.2918" y1="763.7694" y2="763.7694"/><g data-visibility-modifier="PUBLIC_FIELD"><ellipse cx="812.7" cy="777.4178" fill="none" rx="3" ry="3" style="stroke:#000000;stroke-width:1;"/></g><text fill="#000000" font-family="Verdana" font-size="14" lengthAdjust="spacing" textLength="98.916" x="819.7" y="780.7645">Estado_Id : PK</text><g data-visibility-modifier="PUBLIC_FIELD"><ellipse cx="812.7" cy="793.7147" fill="none" rx="3" ry="3" style="stroke:#000000;stroke-width:1;"/></g><text fill="#000000" font-family="Verdana" font-size="14" lengthAdjust="spacing" textLength="110.5918" x="819.7" y="797.0614">Nombre_Estado</text></g><!--class TS--><g class="entity" data-entity="TS" data-source-line="55" data-uid="ent0010" id="entity_TS"><rect fill="#FFFFFF" height="52.2969" rx="2.5" ry="2.5" style="stroke:#2C3E50;stroke-width:1;" width="167.7324" x="971.13" y="743.9094"/><ellipse cx="1005.3951" cy="757.9094" fill="#FFCC00" rx="9" ry="9" style="stroke:#000000;stroke-width:1;"/><path d="M1001.1139,751.5188 L1004.0358,751.5188 L1005.5045,756.9563 L1006.9733,751.5188 L1009.9108,751.5188 L1009.9108,763.9094 L1007.8014,763.9094 L1007.8014,753.9875 L1006.4889,759.4094 L1004.5514,759.4094 L1003.2233,753.9875 L1003.2233,763.9094 L1001.1139,763.9094 L1001.1139,751.5188 Z " fill="#000000"/><text fill="#000000" font-family="Verdana" font-size="14" lengthAdjust="spacing" textLength="92.4766" x="1022.1207" y="762.7561">Tipo_Servicio</text><line style="stroke:#2C3E50;stroke-width:1;" x1="972.13" x2="1137.8624" y1="771.9094" y2="771.9094"/><g data-visibility-modifier="PUBLIC_FIELD"><ellipse cx="982.13" cy="785.5578" fill="none" rx="3" ry="3" style="stroke:#000000;stroke-width:1;"/></g><text fill="#000000" font-family="Verdana" font-size="14" lengthAdjust="spacing" textLength="143.7324" x="989.13" y="788.9045">Tipo_Servicio_Id : PK</text></g><!--class User--><g class="entity" data-entity="User" data-source-line="68" data-uid="ent0014" id="entity_User"><rect fill="#FFFFFF" height="92.8906" rx="2.5" ry="2.5" style="stroke:#2C3E50;stroke-width:1;" width="271.9873" x="94.01" y="455.5794"/><ellipse cx="196.0046" cy="469.5794" fill="#FFCC00" rx="9" ry="9" style="stroke:#000000;stroke-width:1;"/><path d="M191.7234,463.1888 L194.6453,463.1888 L196.114,468.6263 L197.5828,463.1888 L200.5203,463.1888 L200.5203,475.5794 L198.4109,475.5794 L198.4109,465.6575 L197.0984,471.0794 L195.1609,471.0794 L193.8328,465.6575 L193.8328,475.5794 L191.7234,475.5794 L191.7234,463.1888 Z " fill="#000000"/><text fill="#000000" font-family="Verdana" font-size="14" lengthAdjust="spacing" textLength="60.498" x="213.5046" y="474.4261">Usuarios</text><line style="stroke:#2C3E50;stroke-width:1;" x1="95.01" x2="364.9973" y1="483.5794" y2="483.5794"/><g data-visibility-modifier="PUBLIC_FIELD"><ellipse cx="105.01" cy="497.2278" fill="none" rx="3" ry="3" style="stroke:#000000;stroke-width:1;"/></g><text fill="#000000" font-family="Verdana" font-size="14" lengthAdjust="spacing" textLength="63.2256" x="112.01" y="500.5745">Nombres</text><g data-visibility-modifier="PUBLIC_FIELD"><ellipse cx="105.01" cy="513.5247" fill="none" rx="3" ry="3" style="stroke:#000000;stroke-width:1;"/></g><text fill="#000000" font-family="Verdana" font-size="14" lengthAdjust="spacing" textLength="57.0459" x="112.01" y="516.8714">Campus</text><line style="stroke:#2C3E50;stroke-width:1;" x1="95.01" x2="364.9973" y1="524.1731" y2="524.1731"/><g data-visibility-modifier="PUBLIC_METHOD"><ellipse cx="105.01" cy="537.8216" fill="#FFFFFF" rx="3" ry="3" style="stroke:#000000;stroke-width:1;"/></g><text fill="#000000" font-family="Verdana" font-size="14" lengthAdjust="spacing" textLength="247.9873" x="112.01" y="541.1682">Usuario_Id : PK (OneToOne Django)</text></g><!--class UR--><g class="entity" data-entity="UR" data-source-line="74" data-uid="ent0015" id="entity_UR"><rect fill="#FFFFFF" height="36" rx="2.5" ry="2.5" style="stroke:#2C3E50;stroke-width:1;" width="133.5879" x="27.21" y="608.4694"/><ellipse cx="40.21" cy="622.4694" fill="#FFCC00" rx="9" ry="9" style="stroke:#000000;stroke-width:1;"/><path d="M35.9288,616.0788 L38.8506,616.0788 L40.3194,621.5163 L41.7881,616.0788 L44.7256,616.0788 L44.7256,628.4694 L42.6163,628.4694 L42.6163,618.5475 L41.3038,623.9694 L39.3663,623.9694 L38.0381,618.5475 L38.0381,628.4694 L35.9288,628.4694 L35.9288,616.0788 Z " fill="#000000"/><text fill="#000000" font-family="Verdana" font-size="14" lengthAdjust="spacing" textLength="105.5879" x="52.21" y="627.3161">Usuarios_Roles</text><line style="stroke:#2C3E50;stroke-width:1;" x1="28.21" x2="159.7979" y1="636.4694" y2="636.4694"/></g><!--class UP--><g class="entity" data-entity="UP" data-source-line="75" data-uid="ent0016" id="entity_UP"><rect fill="#FFFFFF" height="36" rx="2.5" ry="2.5" style="stroke:#2C3E50;stroke-width:1;" width="170.9941" x="195.5" y="608.4694"/><ellipse cx="208.5" cy="622.4694" fill="#FFCC00" rx="9" ry="9" style="stroke:#000000;stroke-width:1;"/><path d="M204.2188,616.0788 L207.1406,616.0788 L208.6094,621.5163 L210.0781,616.0788 L213.0156,616.0788 L213.0156,628.4694 L210.9063,628.4694 L210.9063,618.5475 L209.5938,623.9694 L207.6563,623.9694 L206.3281,618.5475 L206.3281,628.4694 L204.2188,628.4694 L204.2188,616.0788 Z " fill="#000000"/><text fill="#000000" font-family="Verdana" font-size="14" lengthAdjust="spacing" textLength="142.9941" x="220.5" y="627.3161">Usuarios_Programas</text><line style="stroke:#2C3E50;stroke-width:1;" x1="196.5" x2="365.4941" y1="636.4694" y2="636.4694"/></g><!--class UserSer--><g class="entity" data-entity="UserSer" data-source-line="77" data-uid="ent0017" id="entity_UserSer"><rect fill="#FFFFFF" height="76.5938" rx="2.5" ry="2.5" style="stroke:#2C3E50;stroke-width:1;" width="191.29" x="65.35" y="306.6894"/><ellipse cx="78.35" cy="320.6894" fill="#90EE90" rx="9" ry="9" style="stroke:#000000;stroke-width:1;"/><path d="M77.8344,321.2519 Q75.975,320.5488 75.3188,319.7831 Q74.6781,319.0019 74.6781,317.6894 Q74.6781,316.0019 75.7563,315.0331 Q76.8344,314.0644 78.7094,314.0644 Q79.5688,314.0644 80.4125,314.2675 Q81.2719,314.455 82.1156,314.8456 L82.1156,317.2363 Q81.3344,316.6738 80.5063,316.3925 Q79.6938,316.0956 78.8969,316.0956 Q78.0219,316.0956 77.5375,316.455 Q77.0688,316.8144 77.0688,317.4706 Q77.0688,317.9863 77.4125,318.33 Q77.7563,318.6581 78.85,319.0644 L79.9125,319.4706 Q81.3969,320.0175 82.1,320.9238 Q82.8188,321.83 82.8188,323.205 Q82.8188,325.08 81.7094,326.0019 Q80.6,326.9238 78.35,326.9238 Q77.4281,326.9238 76.5063,326.705 Q75.5844,326.4863 74.725,326.0644 L74.725,323.5331 Q75.6938,324.2206 76.6156,324.5644 Q77.5375,324.9081 78.4281,324.9081 Q79.3344,324.9081 79.8344,324.5019 Q80.3344,324.08 80.3344,323.3456 Q80.3344,322.7831 79.9906,322.3769 Q79.6625,321.955 79.0375,321.705 L77.8344,321.2519 Z " fill="#000000"/><text fill="#000000" font-family="Verdana" font-size="14" lengthAdjust="spacing" textLength="163.29" x="90.35" y="325.5361">UsuarioAdminSerializer</text><line style="stroke:#2C3E50;stroke-width:1;" x1="66.35" x2="255.64" y1="334.6894" y2="334.6894"/><line style="stroke:#2C3E50;stroke-width:1;" x1="66.35" x2="255.64" y1="342.6894" y2="342.6894"/><g data-visibility-modifier="PUBLIC_METHOD"><ellipse cx="76.35" cy="356.3378" fill="#FFFFFF" rx="3" ry="3" style="stroke:#000000;stroke-width:1;"/></g><text fill="#000000" font-family="Verdana" font-size="14" lengthAdjust="spacing" textLength="55.6719" x="83.35" y="359.6845">create()</text><g data-visibility-modifier="PUBLIC_METHOD"><ellipse cx="76.35" cy="372.6347" fill="#FFFFFF" rx="3" ry="3" style="stroke:#000000;stroke-width:1;"/></g><text fill="#000000" font-family="Verdana" font-size="14" lengthAdjust="spacing" textLength="60.252" x="83.35" y="375.9814">update()</text></g><!--class Sol--><g class="entity" data-entity="Sol" data-source-line="92" data-uid="ent0022" id="entity_Sol"><rect fill="#FFFFFF" height="101.1875" rx="2.5" ry="2.5" style="stroke:#2C3E50;stroke-width:1;" width="135.3232" x="898.34" y="294.3894"/><ellipse cx="925.4469" cy="308.3894" fill="#FFCC00" rx="9" ry="9" style="stroke:#000000;stroke-width:1;"/><path d="M921.1656,301.9988 L924.0875,301.9988 L925.5563,307.4363 L927.025,301.9988 L929.9625,301.9988 L929.9625,314.3894 L927.8531,314.3894 L927.8531,304.4675 L926.5406,309.8894 L924.6031,309.8894 L923.275,304.4675 L923.275,314.3894 L921.1656,314.3894 L921.1656,301.9988 Z " fill="#000000"/><text fill="#000000" font-family="Verdana" font-size="14" lengthAdjust="spacing" textLength="75.9746" x="940.5817" y="313.2361">Solicitudes</text><line style="stroke:#2C3E50;stroke-width:1;" x1="899.34" x2="1032.6632" y1="322.3894" y2="322.3894"/><g data-visibility-modifier="PUBLIC_FIELD"><ellipse cx="909.34" cy="336.0378" fill="none" rx="3" ry="3" style="stroke:#000000;stroke-width:1;"/></g><text fill="#000000" font-family="Verdana" font-size="14" lengthAdjust="spacing" textLength="111.3232" x="916.34" y="339.3845">Solicitud_Id : PK</text><g data-visibility-modifier="PUBLIC_FIELD"><ellipse cx="909.34" cy="352.3347" fill="none" rx="3" ry="3" style="stroke:#000000;stroke-width:1;"/></g><text fill="#000000" font-family="Verdana" font-size="14" lengthAdjust="spacing" textLength="85.8594" x="916.34" y="355.6814">Fecha_Inicio</text><g data-visibility-modifier="PUBLIC_FIELD"><ellipse cx="909.34" cy="368.6316" fill="none" rx="3" ry="3" style="stroke:#000000;stroke-width:1;"/></g><text fill="#000000" font-family="Verdana" font-size="14" lengthAdjust="spacing" textLength="69.6309" x="916.34" y="371.9782">Fecha_Fin</text><g data-visibility-modifier="PUBLIC_FIELD"><ellipse cx="909.34" cy="384.9284" fill="none" rx="3" ry="3" style="stroke:#000000;stroke-width:1;"/></g><text fill="#000000" font-family="Verdana" font-size="14" lengthAdjust="spacing" textLength="107.29" x="916.34" y="388.2751">Fecha_solicitud</text></g><!--class SolObj--><g class="entity" data-entity="SolObj" data-source-line="99" data-uid="ent0023" id="entity_SolObj"><rect fill="#FFFFFF" height="52.2969" rx="2.5" ry="2.5" style="stroke:#2C3E50;stroke-width:1;" width="164.7324" x="827.63" y="475.8694"/><ellipse cx="840.63" cy="489.8694" fill="#FFCC00" rx="9" ry="9" style="stroke:#000000;stroke-width:1;"/><path d="M836.3488,483.4788 L839.2706,483.4788 L840.7394,488.9163 L842.2081,483.4788 L845.1456,483.4788 L845.1456,495.8694 L843.0363,495.8694 L843.0363,485.9475 L841.7238,491.3694 L839.7863,491.3694 L838.4581,485.9475 L838.4581,495.8694 L836.3488,495.8694 L836.3488,483.4788 Z " fill="#000000"/><text fill="#000000" font-family="Verdana" font-size="14" lengthAdjust="spacing" textLength="136.7324" x="852.63" y="494.7161">Solicitudes_Objetos</text><line style="stroke:#2C3E50;stroke-width:1;" x1="828.63" x2="991.3624" y1="503.8694" y2="503.8694"/><g data-visibility-modifier="PUBLIC_FIELD"><ellipse cx="838.63" cy="517.5178" fill="none" rx="3" ry="3" style="stroke:#000000;stroke-width:1;"/></g><text fill="#000000" font-family="Verdana" font-size="14" lengthAdjust="spacing" textLength="123.7168" x="845.63" y="520.8645">Cantidad_Objetos</text></g><!--class SolSer--><g class="entity" data-entity="SolSer" data-source-line="103" data-uid="ent0024" id="entity_SolSer"><rect fill="#FFFFFF" height="76.5938" rx="2.5" ry="2.5" style="stroke:#2C3E50;stroke-width:1;" width="206.7871" x="827.61" y="125.1994"/><ellipse cx="840.61" cy="139.1994" fill="#90EE90" rx="9" ry="9" style="stroke:#000000;stroke-width:1;"/><path d="M840.0944,139.7619 Q838.235,139.0588 837.5788,138.2931 Q836.9381,137.5119 836.9381,136.1994 Q836.9381,134.5119 838.0163,133.5431 Q839.0944,132.5744 840.9694,132.5744 Q841.8288,132.5744 842.6725,132.7775 Q843.5319,132.965 844.3756,133.3556 L844.3756,135.7463 Q843.5944,135.1838 842.7663,134.9025 Q841.9538,134.6056 841.1569,134.6056 Q840.2819,134.6056 839.7975,134.965 Q839.3288,135.3244 839.3288,135.9806 Q839.3288,136.4963 839.6725,136.84 Q840.0163,137.1681 841.11,137.5744 L842.1725,137.9806 Q843.6569,138.5275 844.36,139.4338 Q845.0788,140.34 845.0788,141.715 Q845.0788,143.59 843.9694,144.5119 Q842.86,145.4338 840.61,145.4338 Q839.6881,145.4338 838.7663,145.215 Q837.8444,144.9963 836.985,144.5744 L836.985,142.0431 Q837.9538,142.7306 838.8756,143.0744 Q839.7975,143.4181 840.6881,143.4181 Q841.5944,143.4181 842.0944,143.0119 Q842.5944,142.59 842.5944,141.8556 Q842.5944,141.2931 842.2506,140.8869 Q841.9225,140.465 841.2975,140.215 L840.0944,139.7619 Z " fill="#000000"/><text fill="#000000" font-family="Verdana" font-size="14" lengthAdjust="spacing" textLength="178.7871" x="852.61" y="144.0461">SolicitudesWriteSerializer</text><line style="stroke:#2C3E50;stroke-width:1;" x1="828.61" x2="1033.3971" y1="153.1994" y2="153.1994"/><line style="stroke:#2C3E50;stroke-width:1;" x1="828.61" x2="1033.3971" y1="161.1994" y2="161.1994"/><g data-visibility-modifier="PUBLIC_METHOD"><ellipse cx="838.61" cy="174.8478" fill="#FFFFFF" rx="3" ry="3" style="stroke:#000000;stroke-width:1;"/></g><text fill="#000000" font-family="Verdana" font-size="14" lengthAdjust="spacing" textLength="67.1357" x="845.61" y="178.1945">validate()</text><g data-visibility-modifier="PUBLIC_METHOD"><ellipse cx="838.61" cy="191.1447" fill="#FFFFFF" rx="3" ry="3" style="stroke:#000000;stroke-width:1;"/></g><text fill="#000000" font-family="Verdana" font-size="14" lengthAdjust="spacing" textLength="55.6719" x="845.61" y="194.4914">create()</text></g><!--class Rep--><g class="entity" data-entity="Rep" data-source-line="118" data-uid="ent0029" id="entity_Rep"><rect fill="#FFFFFF" height="141.7813" rx="2.5" ry="2.5" style="stroke:#2C3E50;stroke-width:1;" width="261.6514" x="502.17" y="92.6094"/><ellipse cx="545.5738" cy="106.6094" fill="#ADD8E6" rx="9" ry="9" style="stroke:#000000;stroke-width:1;"/><path d="M545.6832,111.0625 L547.8707,100.7188 L550.3394,100.7188 L547.3863,113.1094 L543.9957,113.1094 L541.0426,100.7188 L543.5113,100.7188 L545.6832,111.0625 Z " fill="#000000"/><text fill="#000000" font-family="Verdana" font-size="14" lengthAdjust="spacing" textLength="167.3438" x="563.0738" y="111.4561">ReportesAnalyticsViews</text><line style="stroke:#2C3E50;stroke-width:1;" x1="503.17" x2="762.8214" y1="120.6094" y2="120.6094"/><line style="stroke:#2C3E50;stroke-width:1;" x1="503.17" x2="762.8214" y1="128.6094" y2="128.6094"/><g data-visibility-modifier="PUBLIC_METHOD"><ellipse cx="513.17" cy="142.2578" fill="#FFFFFF" rx="3" ry="3" style="stroke:#000000;stroke-width:1;"/></g><text fill="#000000" font-family="Verdana" font-size="14" lengthAdjust="spacing" textLength="100.8984" x="520.17" y="145.6045">obtener_kpis()</text><g data-visibility-modifier="PUBLIC_METHOD"><ellipse cx="513.17" cy="158.5547" fill="#FFFFFF" rx="3" ry="3" style="stroke:#000000;stroke-width:1;"/></g><text fill="#000000" font-family="Verdana" font-size="14" lengthAdjust="spacing" textLength="203.6631" x="520.17" y="161.9014">obtener_actividad_mensual()</text><g data-visibility-modifier="PUBLIC_METHOD"><ellipse cx="513.17" cy="174.8516" fill="#FFFFFF" rx="3" ry="3" style="stroke:#000000;stroke-width:1;"/></g><text fill="#000000" font-family="Verdana" font-size="14" lengthAdjust="spacing" textLength="237.6514" x="520.17" y="178.1982">obtener_distribucion_programas()</text><g data-visibility-modifier="PUBLIC_METHOD"><ellipse cx="513.17" cy="191.1484" fill="#FFFFFF" rx="3" ry="3" style="stroke:#000000;stroke-width:1;"/></g><text fill="#000000" font-family="Verdana" font-size="14" lengthAdjust="spacing" textLength="220.7324" x="520.17" y="194.4951">obtener_equipos_mas_usados()</text><g data-visibility-modifier="PUBLIC_METHOD"><ellipse cx="513.17" cy="207.4453" fill="#FFFFFF" rx="3" ry="3" style="stroke:#000000;stroke-width:1;"/></g><text fill="#000000" font-family="Verdana" font-size="14" lengthAdjust="spacing" textLength="233.8711" x="520.17" y="210.792">obtener_entregas_devoluciones()</text><g data-visibility-modifier="PUBLIC_METHOD"><ellipse cx="513.17" cy="223.7422" fill="#FFFFFF" rx="3" ry="3" style="stroke:#000000;stroke-width:1;"/></g><text fill="#000000" font-family="Verdana" font-size="14" lengthAdjust="spacing" textLength="129.5342" x="520.17" y="227.0889">exportar_reporte()</text></g><g class="entity" data-entity="GMN30" data-source-line="128" data-uid="ent0031" id="entity_GMN30"><path d="M542.95,324.8494 L542.95,365.115 A0,0 0 0 0 542.95,365.115 L755.0525,365.115 A0,0 0 0 0 755.0525,365.115 L755.0525,334.8494 L745.0525,324.8494 L653,324.8494 L649,234.7094 L645,324.8494 L542.95,324.8494 A0,0 0 0 0 542.95,324.8494" fill="#FFFFFF" style="stroke:#000000;stroke-width:1;"/><path d="M745.0525,324.8494 L745.0525,334.8494 L755.0525,334.8494 L745.0525,324.8494" fill="#FFFFFF" style="stroke:#000000;stroke-width:1;"/><text fill="#000000" font-family="Verdana" font-size="13" lengthAdjust="spacing" textLength="159.1167" x="548.95" y="341.9163">Agrupa toda la l&#243;gica de</text><text fill="#000000" font-family="Verdana" font-size="13" lengthAdjust="spacing" textLength="191.1025" x="548.95" y="357.0491">an&#225;lisis de datos (Read-Only)</text></g><!--link Obj to Cat--><g class="link" data-entity-1="Obj" data-entity-2="Cat" data-source-line="60" data-uid="lnk11" id="link_Obj_Cat"><path codeLine="60" d="M696,821.1494 C696,840.6994 696,856.5294 696,874.2094" fill="none" id="Obj-to-Cat" style="stroke:#2C3E50;stroke-width:1;"/><polygon fill="#2C3E50" points="696,880.2094,700,871.2094,696,875.2094,692,871.2094,696,880.2094" style="stroke:#2C3E50;stroke-width:1;"/><text fill="#000000" font-family="Verdana" font-size="13" lengthAdjust="spacing" textLength="23.0356" x="671.5282" y="840.7311">0..*</text><text fill="#000000" font-family="Verdana" font-size="13" lengthAdjust="spacing" textLength="8.271" x="687.1026" y="869.4992">1</text></g><!--link Prog to Fac--><g class="link" data-entity-1="Prog" data-entity-2="Fac" data-source-line="61" data-uid="lnk12" id="link_Prog_Fac"><path codeLine="61" d="M511,804.7694 C511,827.7094 511,851.6494 511,874.5294" fill="none" id="Prog-to-Fac" style="stroke:#2C3E50;stroke-width:1;"/><polygon fill="#2C3E50" points="511,880.5294,515,871.5294,511,875.5294,507,871.5294,511,880.5294" style="stroke:#2C3E50;stroke-width:1;"/><text fill="#000000" font-family="Verdana" font-size="13" lengthAdjust="spacing" textLength="23.0356" x="485.599" y="824.3655">0..*</text><text fill="#000000" font-family="Verdana" font-size="13" lengthAdjust="spacing" textLength="8.271" x="502.2635" y="869.6166">1</text></g><!--link User to UR--><g class="link" data-entity-1="User" data-entity-2="UR" data-source-line="83" data-uid="lnk18" id="link_User_UR"><path codeLine="83" d="M127.4,548.7194 C127.4,569.4094 127.4,592.5394 127.4,608.1594" fill="none" id="User-UR" style="stroke:#2C3E50;stroke-width:1;"/><text fill="#000000" font-family="Verdana" font-size="13" lengthAdjust="spacing" textLength="8.271" x="104.4279" y="568.4167">1</text><text fill="#000000" font-family="Verdana" font-size="13" lengthAdjust="spacing" textLength="23.0356" x="111.1111" y="597.3423">0..*</text></g><!--link User to UP--><g class="link" data-entity-1="User" data-entity-2="UP" data-source-line="84" data-uid="lnk19" id="link_User_UP"><path codeLine="84" d="M280.75,548.7194 C280.75,569.4094 280.75,592.5394 280.75,608.1594" fill="none" id="User-UP" style="stroke:#2C3E50;stroke-width:1;"/><text fill="#000000" font-family="Verdana" font-size="13" lengthAdjust="spacing" textLength="8.271" x="279.3428" y="568.4167">1</text><text fill="#000000" font-family="Verdana" font-size="13" lengthAdjust="spacing" textLength="23.0356" x="254.1579" y="597.3423">0..*</text></g><!--link UserSer to User--><g class="link" data-entity-1="UserSer" data-entity-2="User" data-source-line="85" data-uid="lnk20" id="link_UserSer_User"><path codeLine="85" d="M175.33,383.3994 C175.33,405.0994 175.33,426.3894 175.33,449.3194" fill="none" id="UserSer-to-User" style="stroke:#2C3E50;stroke-width:1;stroke-dasharray:7,7;"/><polygon fill="#2C3E50" points="175.33,455.3194,179.33,446.3194,175.33,450.3194,171.33,446.3194,175.33,455.3194" style="stroke:#2C3E50;stroke-width:1;"/><text fill="#000000" font-family="Verdana" font-size="13" lengthAdjust="spacing" textLength="57.7129" x="117.33" y="415.4263">Gestiona</text></g><!--reverse link Sol to SolObj--><g class="link" data-entity-1="Sol" data-entity-2="SolObj" data-source-line="109" data-uid="lnk25" id="link_Sol_SolObj"><path codeLine="109" d="M961.02,407.9694 C961.02,434.4794 961.02,453.7794 961.02,475.4794" fill="none" id="Sol-backto-SolObj" style="stroke:#2C3E50;stroke-width:1;"/><polygon fill="#2C3E50" points="961.02,395.9694,957.02,401.9694,961.02,407.9694,965.02,401.9694,961.02,395.9694" style="stroke:#2C3E50;stroke-width:1;"/><text fill="#000000" font-family="Verdana" font-size="13" lengthAdjust="spacing" textLength="46.2935" x="914.02" y="431.7863">Detalle</text><text fill="#000000" font-family="Verdana" font-size="13" lengthAdjust="spacing" textLength="8.271" x="951.8866" y="415.5383">1</text><text fill="#000000" font-family="Verdana" font-size="13" lengthAdjust="spacing" textLength="23.0356" x="947.164" y="464.6902">0..*</text></g><!--link SolSer to Sol--><g class="link" data-entity-1="SolSer" data-entity-2="Sol" data-source-line="110" data-uid="lnk26" id="link_SolSer_Sol"><path codeLine="110" d="M966,201.9894 C966,228.8294 966,258.9294 966,288.1394" fill="none" id="SolSer-to-Sol" style="stroke:#2C3E50;stroke-width:1;stroke-dasharray:7,7;"/><polygon fill="#2C3E50" points="966,294.1394,970,285.1394,966,289.1394,962,285.1394,966,294.1394" style="stroke:#2C3E50;stroke-width:1;"/><text fill="#000000" font-family="Verdana" font-size="13" lengthAdjust="spacing" textLength="30.3862" x="935" y="244.1363">Crea</text></g><!--link SolSer to SolObj--><g class="link" data-entity-1="SolSer" data-entity-2="SolObj" data-source-line="111" data-uid="lnk27" id="link_SolSer_SolObj"><path codeLine="111" d="M862.99,201.9994 C862.99,271.4894 862.99,410.1694 862.99,469.6294" fill="none" id="SolSer-to-SolObj" style="stroke:#2C3E50;stroke-width:1;stroke-dasharray:7,7;"/><polygon fill="#2C3E50" points="862.99,475.6294,866.99,466.6294,862.99,470.6294,858.99,466.6294,862.99,475.6294" style="stroke:#2C3E50;stroke-width:1;"/><text fill="#000000" font-family="Verdana" font-size="13" lengthAdjust="spacing" textLength="30.3862" x="831.99" y="334.8863">Crea</text></g><!--link Sol to Lab--><g class="link" data-entity-1="Sol" data-entity-2="Lab" data-source-line="138" data-uid="lnk33" id="link_Sol_Lab"><path codeLine="138" d="M1023.34,396.0094 C1023.34,501.1694 1023.34,732.2494 1023.34,732.2494 C1023.34,732.2494 1100.61,732.2494 1167.94,732.2494" fill="none" id="Sol-to-Lab" style="stroke:#2C3E50;stroke-width:1;"/><polygon fill="#2C3E50" points="1173.94,732.2494,1164.94,728.2494,1168.94,732.2494,1164.94,736.2494,1173.94,732.2494" style="stroke:#2C3E50;stroke-width:1;"/><text fill="#000000" font-family="Verdana" font-size="13" lengthAdjust="spacing" textLength="52.8062" x="970.34" y="635.4963">Reserva</text><text fill="#000000" font-family="Verdana" font-size="13" lengthAdjust="spacing" textLength="23.0356" x="1006.2153" y="415.5835">0..*</text><text fill="#000000" font-family="Verdana" font-size="13" lengthAdjust="spacing" textLength="8.271" x="1158.1091" y="725.2863">1</text></g><!--link Sol to Est--><g class="link" data-entity-1="Sol" data-entity-2="Est" data-source-line="139" data-uid="lnk34" id="link_Sol_Est"><path codeLine="139" d="M1002.69,395.8494 C1002.69,502.5994 1002.69,740.2494 1002.69,740.2494 C1002.69,740.2494 975.79,740.2494 942.63,740.2494" fill="none" id="Sol-to-Est" style="stroke:#2C3E50;stroke-width:1;"/><polygon fill="#2C3E50" points="936.63,740.2494,945.63,744.2494,941.63,740.2494,945.63,736.2494,936.63,740.2494" style="stroke:#2C3E50;stroke-width:1;"/><text fill="#000000" font-family="Verdana" font-size="13" lengthAdjust="spacing" textLength="44.2559" x="957.69" y="597.1463">Estado</text><text fill="#000000" font-family="Verdana" font-size="13" lengthAdjust="spacing" textLength="23.0356" x="983.0771" y="415.7682">0..*</text><text fill="#000000" font-family="Verdana" font-size="13" lengthAdjust="spacing" textLength="8.271" x="944.4798" y="733.242">1</text></g><!--link Sol to TS--><g class="link" data-entity-1="Sol" data-entity-2="TS" data-source-line="140" data-uid="lnk35" id="link_Sol_TS"><path codeLine="140" d="M1013.01,395.8394 C1013.01,486.7394 1013.01,668.0794 1013.01,737.4594" fill="none" id="Sol-to-TS" style="stroke:#2C3E50;stroke-width:1;"/><polygon fill="#2C3E50" points="1013.01,743.4594,1017.01,734.4594,1013.01,738.4594,1009.01,734.4594,1013.01,743.4594" style="stroke:#2C3E50;stroke-width:1;"/><text fill="#000000" font-family="Verdana" font-size="13" lengthAdjust="spacing" textLength="27.7583" x="985.01" y="565.7163">Tipo</text><text fill="#000000" font-family="Verdana" font-size="13" lengthAdjust="spacing" textLength="23.0356" x="1020.8745" y="415.7568">0..*</text><text fill="#000000" font-family="Verdana" font-size="13" lengthAdjust="spacing" textLength="8.271" x="994.407" y="732.6564">1</text></g><!--link SolObj to Obj--><g class="link" data-entity-1="SolObj" data-entity-2="Obj" data-source-line="141" data-uid="lnk36" id="link_SolObj_Obj"><path codeLine="141" d="M827.39,511.2494 C793.5,511.2494 762.07,511.2494 762.07,511.2494 C762.07,511.2494 762.07,637.8694 762.07,713.2394" fill="none" id="SolObj-to-Obj" style="stroke:#2C3E50;stroke-width:1;"/><polygon fill="#2C3E50" points="762.07,719.2394,766.07,710.2394,762.07,714.2394,758.07,710.2394,762.07,719.2394" style="stroke:#2C3E50;stroke-width:1;"/><text fill="#000000" font-family="Verdana" font-size="13" lengthAdjust="spacing" textLength="29.5928" x="732.07" y="578.6563">Item</text><text fill="#000000" font-family="Verdana" font-size="13" lengthAdjust="spacing" textLength="23.0356" x="796.5983" y="508.4652">0..*</text><text fill="#000000" font-family="Verdana" font-size="13" lengthAdjust="spacing" textLength="8.271" x="762.4282" y="708.4779">1</text></g><!--link Sol to User--><g class="link" data-entity-1="Sol" data-entity-2="User" data-source-line="142" data-uid="lnk37" id="link_Sol_User"><path codeLine="142" d="M929.68,395.8894 C929.68,430.1994 929.68,469.2494 929.68,469.2494 C929.68,469.2494 575.7,469.2494 372.15,469.2494" fill="none" id="Sol-to-User" style="stroke:#2C3E50;stroke-width:1;"/><polygon fill="#2C3E50" points="366.15,469.2494,375.15,473.2494,371.15,469.2494,375.15,465.2494,366.15,469.2494" style="stroke:#2C3E50;stroke-width:1;"/><text fill="#000000" font-family="Verdana" font-size="13" lengthAdjust="spacing" textLength="68.5864" x="615.6" y="465.3163">Solicitante</text><text fill="#000000" font-family="Verdana" font-size="13" lengthAdjust="spacing" textLength="23.0356" x="900.2564" y="415.8135">0..*</text><text fill="#000000" font-family="Verdana" font-size="13" lengthAdjust="spacing" textLength="8.271" x="373.8217" y="464.1173">1</text></g><!--link SolSer to Lab--><g class="link" data-entity-1="SolSer" data-entity-2="Lab" data-source-line="145" data-uid="lnk38" id="link_SolSer_Lab"><path codeLine="145" d="M1034.46,164.2494 C1130.27,164.2494 1258,164.2494 1258,164.2494 C1258,164.2494 1258,583.5694 1258,721.4594" fill="none" id="SolSer-to-Lab" style="stroke:#2C3E50;stroke-width:1;stroke-dasharray:7,7;"/><polygon fill="#2C3E50" points="1258,727.4594,1262,718.4594,1258,722.4594,1254,718.4594,1258,727.4594" style="stroke:#2C3E50;stroke-width:1;"/><text fill="#000000" font-family="Verdana" font-size="13" lengthAdjust="spacing" textLength="56.9575" x="1201" y="330.1563">Consulta</text></g><!--link SolSer to Obj--><g class="link" data-entity-1="SolSer" data-entity-2="Obj" data-source-line="146" data-uid="lnk39" id="link_SolSer_Obj"><path codeLine="146" d="M827.16,164.2494 C805,164.2494 788.12,164.2494 788.12,164.2494 C788.12,164.2494 788.12,724.2494 788.12,724.2494 C788.12,724.2494 785.12,724.2494 772.75,724.2494" fill="none" id="SolSer-to-Obj" style="stroke:#2C3E50;stroke-width:1;stroke-dasharray:7,7;"/><polygon fill="#2C3E50" points="766.75,724.2494,775.75,728.2494,771.75,724.2494,775.75,720.2494,766.75,724.2494" style="stroke:#2C3E50;stroke-width:1;"/><text fill="#000000" font-family="Verdana" font-size="13" lengthAdjust="spacing" textLength="80.4121" x="707.12" y="431.4763">Valida Stock</text></g><!--link UR to Role--><g class="link" data-entity-1="UR" data-entity-2="Role" data-source-line="149" data-uid="lnk40" id="link_UR_Role"><path codeLine="149" d="M94,644.6794 C94,683.3694 94,770.2494 94,770.2494 C94,770.2494 196.87,770.2494 269.16,770.2494" fill="none" id="UR-to-Role" style="stroke:#2C3E50;stroke-width:1;"/><polygon fill="#2C3E50" points="275.16,770.2494,266.16,766.2494,270.16,770.2494,266.16,774.2494,275.16,770.2494" style="stroke:#2C3E50;stroke-width:1;"/><text fill="#000000" font-family="Verdana" font-size="13" lengthAdjust="spacing" textLength="23.0356" x="67.4824" y="664.6403">0..*</text><text fill="#000000" font-family="Verdana" font-size="13" lengthAdjust="spacing" textLength="8.271" x="259.0303" y="766.4326">1</text></g><!--link UP to Prog--><g class="link" data-entity-1="UP" data-entity-2="Prog" data-source-line="150" data-uid="lnk41" id="link_UP_Prog"><path codeLine="150" d="M366.93,627.2494 C416.38,627.2494 468.8,627.2494 468.8,627.2494 C468.8,627.2494 468.8,687.2294 468.8,729.4894" fill="none" id="UP-to-Prog" style="stroke:#2C3E50;stroke-width:1;"/><polygon fill="#2C3E50" points="468.8,735.4894,472.8,726.4894,468.8,730.4894,464.8,726.4894,468.8,735.4894" style="stroke:#2C3E50;stroke-width:1;"/><text fill="#000000" font-family="Verdana" font-size="13" lengthAdjust="spacing" textLength="23.0356" x="374.3911" y="623.8069">0..*</text><text fill="#000000" font-family="Verdana" font-size="13" lengthAdjust="spacing" textLength="8.271" x="451.9387" y="724.8106">1</text></g><!--link UserSer to Role--><g class="link" data-entity-1="UserSer" data-entity-2="Role" data-source-line="151" data-uid="lnk42" id="link_UserSer_Role"><path codeLine="151" d="M256.98,374.2494 C317.2,374.2494 383.5,374.2494 383.5,374.2494 C383.5,374.2494 383.5,632.6994 383.5,729.2794" fill="none" id="UserSer-to-Role" style="stroke:#2C3E50;stroke-width:1;stroke-dasharray:7,7;"/><polygon fill="#2C3E50" points="383.5,735.2794,387.5,726.2794,383.5,730.2794,379.5,726.2794,383.5,735.2794" style="stroke:#2C3E50;stroke-width:1;"/><text fill="#000000" font-family="Verdana" font-size="13" lengthAdjust="spacing" textLength="43.7354" x="384.5" y="487.5663">Asigna</text></g><!--link Rep to Sol--><g class="link" data-entity-1="Rep" data-entity-2="Sol" data-source-line="154" data-uid="lnk43" id="link_Rep_Sol"><path codeLine="154" d="M760.32,234.7994 C760.32,268.4094 760.32,301.2494 760.32,301.2494 C760.32,301.2494 832.17,301.2494 892.08,301.2494" fill="none" id="Rep-to-Sol" style="stroke:#2C3E50;stroke-width:1;stroke-dasharray:7,7;"/><polygon fill="#2C3E50" points="898.08,301.2494,889.08,297.2494,893.08,301.2494,889.08,305.2494,898.08,301.2494" style="stroke:#2C3E50;stroke-width:1;"/><text fill="#000000" font-family="Verdana" font-size="13" lengthAdjust="spacing" textLength="172.2944" x="622.97" y="297.3163">&#171;Read Only&#187; KPIs/Historial</text></g><!--link Rep to Obj--><g class="link" data-entity-1="Rep" data-entity-2="Obj" data-source-line="155" data-uid="lnk44" id="link_Rep_Obj"><path codeLine="155" d="M756.81,234.8594 C756.81,358.8794 756.81,605.2194 756.81,713.1894" fill="none" id="Rep-to-Obj" style="stroke:#2C3E50;stroke-width:1;stroke-dasharray:7,7;"/><polygon fill="#2C3E50" points="756.81,719.1894,760.81,710.1894,756.81,714.1894,752.81,710.1894,756.81,719.1894" style="stroke:#2C3E50;stroke-width:1;"/><text fill="#000000" font-family="Verdana" font-size="13" lengthAdjust="spacing" textLength="160.0752" x="595.81" y="490.0963">&#171;Read Only&#187; Uso/Estado</text></g><!--link Rep to User--><g class="link" data-entity-1="Rep" data-entity-2="User" data-source-line="156" data-uid="lnk45" id="link_Rep_User"><path codeLine="156" d="M515.77,234.5394 C515.77,323.1794 515.77,463.2494 515.77,463.2494 C515.77,463.2494 445.79,463.2494 372.19,463.2494" fill="none" id="Rep-to-User" style="stroke:#2C3E50;stroke-width:1;stroke-dasharray:7,7;"/><polygon fill="#2C3E50" points="366.19,463.2494,375.19,467.2494,371.19,463.2494,375.19,459.2494,366.19,463.2494" style="stroke:#2C3E50;stroke-width:1;"/><text fill="#000000" font-family="Verdana" font-size="13" lengthAdjust="spacing" textLength="147.7227" x="367.77" y="419.7463">&#171;Read Only&#187; Actividad</text></g><!--link Rep to Prog--><g class="link" data-entity-1="Rep" data-entity-2="Prog" data-source-line="157" data-uid="lnk46" id="link_Rep_Prog"><path codeLine="157" d="M529.36,234.8594 C529.36,365.6094 529.36,632.9894 529.36,729.4594" fill="none" id="Rep-to-Prog" style="stroke:#2C3E50;stroke-width:1;stroke-dasharray:7,7;"/><polygon fill="#2C3E50" points="529.36,735.4594,533.36,726.4594,529.36,730.4594,525.36,726.4594,529.36,735.4594" style="stroke:#2C3E50;stroke-width:1;"/><text fill="#000000" font-family="Verdana" font-size="13" lengthAdjust="spacing" textLength="165.0898" x="446.86" y="498.2263">&#171;Read Only&#187; Distribuci&#243;n</text></g><!--link Rep to SolObj--><g class="link" data-entity-1="Rep" data-entity-2="SolObj" data-source-line="158" data-uid="lnk47" id="link_Rep_SolObj"><path codeLine="158" d="M758.56,234.8594 C758.56,332.0894 758.56,494.2494 758.56,494.2494 C758.56,494.2494 785.84,494.2494 821.19,494.2494" fill="none" id="Rep-to-SolObj" style="stroke:#2C3E50;stroke-width:1;stroke-dasharray:7,7;"/><polygon fill="#2C3E50" points="827.19,494.2494,818.19,490.2494,822.19,494.2494,818.19,498.2494,827.19,494.2494" style="stroke:#2C3E50;stroke-width:1;"/><text fill="#000000" font-family="Verdana" font-size="13" lengthAdjust="spacing" textLength="166.772" x="591.56" y="394.9363">&#171;Read Only&#187; Top Equipos</text></g><!--SRC=[fLRlRjis4F-kfxWvmEfqSPgssB0QMG3DbZUZIUp9Thfl1YtTR3OogP6Kkwpem-m1zgcFa1VRKVyYAJAyDe9XIBmxtl7ukz_TDsQ3MuGuObmu6nuYu3OsTx15iv6XTlGj5p5JR0j1nBI6ZmxGypCBRjTA9Y8So4WgUBVX1bE9gvJya2qUlHgyzhu_omoa2b7LrpzLDe-uG7CN8qX5VXt7S1CX33bRavG1XJKWzwXX8BTnX4P23zpf6DmWG7t9Lj0TYo1AxX1yZ6aFrCUEymn- -jyFAK_TtnRUt8ChrvlD_SaCkWDcxl-9v5fgG1YB7Gh359V7NxPpJCbYQuIE6yTzk6AeZPAwawSo_Sjosw63ICMC91yaPnhioSxFeNjrSZGQ3GPdPyTmSP4RskSxg9Wino7qOVgs8hsMsvN2PKMf8XmmYeo7B4pNFZdLI2QhzvJaB0XwFn14hhq_W5oXvboOvSp8uBQow0Q6xsHBE7GHkARmMHOHVHw8g3JO7rEfqkBFbn5chkpR0L-aijzBkbEBXwcIARGpB_RhW9V2OB-hGgF5suW5IMHOc1-AFWzuAmpsUoiqMhnvcjPpyD3x0LUPzdv7cRp5pPp7SZb3jUC1bwcp-Uo0hvf9pMM-zJFYZuYgGWhYcg9KKucjWixPwUdp3lHw5z1vsR4WIqNfxJLab1uYkA-beCLiuVfZIq5kOeXrU40ntNyMJsAUXKvOnYmVgsbyMAOCBZIg0pdCzOliGNSYS2xf3uRlcLWJEpQli5xtspXfAuWYZEL3xItynw6qcjIBQJ5jCMknSyCj5mG6pYB-Dwho_BCy1REJepTddlVcSGe2XKGUtUf9apXyM6e3Kn5iAadJR67IwnN0MVXx9TDIOaCxFRt8jFhm2-6JTcTFG9hlpJp_nYMaNTv_NXFE2CrS13ncqPF0vYE5k6DDiCraHALdaeA9wFi0t4gB5eOOOR0XGXIscXyjZsYWQQxfOhCM05P2MrRR7wqVxe2sdTbMMkjqU_T_fsXSQY2Fn8U1joE3i0cz6XhRe5VSHIgn6RVuUlu0iFo4VHYYOL64XLw1DclIXm6vQP5abgdmAIYSJlovP_bEiEYE-4x3jp1aUhEIJ8LFH68s43QGM2oN3cyuViXxFiRfFToS7Bd3uO_U3u_kGQw8bL4jRsEkQtTH29YTP590R55GvKUjMY6d_i9NYRsdPLoGMAig_fbGxz9BaYyJRTjhkvem2jUa4-9EHaa6W9ec_cNFpTHIPGaeSLCEeq8QX9KqHcv1_c6paPkxQvN438mC6KJqomc3XlDSWGaQbxdcsguHJcbkxlh8mjv4H7UP7nHXwk0hm3AON7k_Z-bl1kFhkUVthYR3nQLB3FPbEv7sozFgRiCg3SuL4ve5DdEM0jDogRTsEvIN1DUcO6UUVZxNjCbfJEcdeuYJrqz3dfNKsE2spJhd_fnEY7VGdcY8CQKMYRbPcls2pSlQhrHjTe21963I15ULP9vlKfQ1R3gdlLyrirMC9mvrw4Pqjdixr84RoxP3EzKEbixLVN0rNrF_8YUl7rz9bHFk_xL3qB5ZQ_E1ayxFBRp0meigzErqh5_yIZLbf_geLCqELLTTQFaYlw12BSzhNSyjwhXKIuUzfjgmB6GQqgenjlcUonYyh9p_0m00]--></g></svg>